<?xml version="1.0" encoding="utf-8"?>
<!-- Generator: Adobe Illustrator 24.2.3, SVG Export Plug-In . SVG Version: 6.00 Build 0)  -->
<svg version="1.1" id="Layer_1" xmlns="http://www.w3.org/2000/svg" xmlns:xlink="http://www.w3.org/1999/xlink" x="0px" y="0px"
	 viewBox="0 0 358.8 694.6" style="enable-background:new 0 0 358.8 694.6;" xml:space="preserve">
<style type="text/css">
	.st0{font-family:'MyriadPro-Regular';}
	.st1{font-size:12px;}
	.st2{fill:#E3E3E0;}
	.st3{fill:#ffffff;}
	.st4{fill:#B7B5B6;}
	.st5{fill:#DDDAD9;}
	.st6{fill:#030303;}
	.st7{fill:#007CC1;}
</style>
<text transform="matrix(1 0 0 1 174.3099 353.4593)" class="st0 st1"> br</text>
<path class="st2" d="M288.8,125c1.2,11.9,4.3,23.5,6.6,35.2c7.5,38.6,15.3,77.2,22.9,115.9c0.3,1.3,0.3,2.6,0.4,3.9
	c-0.7-0.1-1.4,0-2-0.2c-19.8-8-40.7-9.8-61.8-10.7c-10.4-0.5-20.8,0.9-31.2,1.9c-14.7,1.4-29.2,3.9-42.9,9.6
	c-3.3,1.4-6.3,1.6-9.5,0.1c-6.8-3.2-14-5.1-21.3-6.6c-12.2-2.5-24.5-3.5-36.9-4.4c-14.5-1.1-28.7,0.5-43,2.1
	c-9.6,1.1-18.7,4.2-28.1,6.3c1.5-13.4,4.8-26.4,7.4-39.6c7.3-37.2,14.9-74.3,22.3-111.4c0.2-1,0.2-2,0.3-3
	c5.1-5.6,10.1-11.4,15.4-16.8c15.6-16.1,31.7-31.8,47.2-48c9.5-9.9,14.1-20.6,11.2-34.1c22.7-5.7,45.3-6.1,68,0c0,2.7,0,5.3-0.1,8
	c-0.5,9.6,3.2,17.5,9.8,24.1c20.3,20.8,40.7,41.5,61.1,62.2c1.4,1.4,3.1,2.6,3.4,4.8C288.3,124.5,288.5,124.8,288.8,125L288.8,125z
	 M199.6,240.1c2.6,3.1,5.6,5.7,9,7.8c6.9,4.3,14.3,4,20.3-1.3c2.6-2.3,3.8-2.6,6.7-0.1c11.6,9.7,27.3,5.7,33.3-8
	c2.9-6.5,3.8-13.5,3.7-20.5c-0.2-24.4-8.2-46.6-20-67.6c-4.5-8-9.6-15.6-15.3-22.8c-0.9-1.1-1.6-2-3.2-0.7c-1.5,1.2-1.2,2.1-0.2,3.2
	c0.6,0.8,1.2,1.6,1.8,2.4c14.7,19.5,25.6,40.8,30.5,64.9c2.6,13,3.8,26.1-1,38.9c-4.3,11.5-17.8,14.9-27.3,7
	c-2.3-1.9-3.3-3.6-1.4-6.6c2.2-3.5,3.3-7.6,3.3-11.9c0-3.5-0.4-7-4.6-7.8c-4.4-0.8-7.3,1.3-8.7,5.6c-1.7,5.1-0.3,9.8,1.7,14.5
	c0.5,1.2,1.7,2.3,0.5,4c-2.7,3.9-8.4,6.3-13.2,5.2c-4.6-1-7.9-4-11.2-7.1c-2-1.8-2.5-3.5-1.3-6c1.8-4,2.7-8.3,0.6-12.5
	c-1.6-3.3-4.4-4.3-7.9-3.6c-3.5,0.7-4.2,3.3-4.2,6.4c0,3.8,1.6,7.2,3.6,10.2c1.7,2.6,1,4-0.8,5.9c-9.7,10.2-25,9.4-33.5-1.8
	c-1.5-2-1.8-3.4-0.5-5.7c2.1-3.8,3.6-7.9,2.9-12.4c-0.5-3.2-2.3-5.2-5.6-5.4c-3.3-0.2-5.1,1.8-6,4.9c-1.2,4.2,0,8.2,1.1,12.2
	c0.4,1.3,1.7,2.5,0.5,4.2c-6.8,9.5-20.4,14.5-29.6,3.3c-1.6-2-1.9-3.6-0.6-5.8c1.9-3.2,3.1-6.6,3.6-10.3c0.4-3.1,0.2-6.3-3.5-7.3
	c-3.9-1-6.5,1-7.8,4.5c-1.4,3.9-1.1,7.8,0.1,11.8c0.4,1.4,1.5,3.2,1,4.2c-2.1,4-4.6,7.8-9.4,9c-4.6,1.2-8.1-0.5-11-4.1
	c-2.9-3.6-4.2-7.9-5.2-12.3c-5.3-23.5-0.9-45.5,10.1-66.6c5.6-10.8,12.3-20.9,19.2-30.9c0.9-1.3,3.1-2.7,0.4-4.4
	c-2.8-1.8-3,1.1-3.8,2.3c-4.9,7.3-9.9,14.6-14.4,22.2c-9.8,16.6-17.4,34.1-17.7,53.8c-0.2,12.2,0.3,24.4,6.3,35.4
	c6.1,11.2,17.3,12.4,25.6,2.8c2.2-2.5,3.2-2.6,5.6-0.2c7.4,7.6,17.6,8.5,26.3,2.6c2.8-1.9,5.3-4.4,8-6.6
	C168.9,255.6,188.4,253.6,199.6,240.1z"/>
<path class="st3" d="M42,278c9.4-2,18.5-5.2,28.1-6.3c14.3-1.6,28.4-3.2,43-2.1c12.4,0.9,24.7,1.9,36.9,4.4
	c7.3,1.5,14.5,3.4,21.3,6.6c3.2,1.5,6.3,1.3,9.5-0.1c13.7-5.7,28.2-8.2,42.9-9.6c10.4-1,20.8-2.3,31.2-1.9c21,0.9,42,2.7,61.8,10.7
	c0.6,0.2,1.3,0.2,2,0.2c5.2,3.4,11.4,5.2,16.5,9.7c-3.2,1.2-6,2.5-9,3.4c-8.3,2.7-7.9,10.9-4.9,16.7c3,5.7,6.2,11.3,7.9,17.6
	c1.1,4,1.6,8.1-0.1,12.6c-4.8-3.3-7.2-9.4-13.4-10.4c-1.6-2.4-4.2-2.5-6-1.2c-1.6,1.1,0.5,2.9,1.1,4.3c0.9,1.7,0.8,4,2.7,5.1
	c2.7,9.9,6.5,19.5,7.8,29.8c1,8.2,2,16.4,0.1,25.2c-2.6-3.4-4.7-6.5-7.1-9.4c-1.5-1.8-3.1-3.5-4.8-5.1c-8.9-8.5-10.3-8.3-17.1,1.6
	c-4.9,7.2-10,14.1-17.4,18.9c-5.1-3.3-8.3-8.6-12.2-13c-17.9-19.8-36.9-38-61.3-49.9c-1.4-0.7-3.3-1-3.6-3c2.4-1.4,5-2.6,7.3-4.2
	c13.5-9.5,13.8-24.1,0.5-33.8c-10.4-7.7-22.5-9.3-35.1-7.7c-9.8,1.3-18.7,4.6-25.3,12.4c-6.5,7.7-6.1,17.4,0.6,24.8
	c2.9,3.1,6.3,5.3,9.9,7.5c-0.3,2.1-2.2,2.2-3.6,2.9c-4,2-8.1,3.9-12,6.1c-12.4,6.9-23.6,15.5-33.9,25.1c-9.3,8.8-19,17.1-26.5,27.7
	c-0.2,0-0.4,0-0.5,0.1c-6.3,5.6-6.9,5.5-11.3-1.9c-3.2-5.5-6.1-11.2-7.2-17.4c-0.8-4.8-3.2-4.6-6.5-2.9c-6.4,3.2-11,8.4-15.3,14
	c-1.3,1.7-2.5,3.4-4.7,6.4c-0.9-8.2-1-15-0.2-21.8c1.5-11.8,4.7-23.1,9.2-34c0.4-1.1,1-2.1,1.3-3.2c0.4-1.9,0-3.9-1.3-5.1
	c-1.2-1.1-2.8,0.1-4.1,0.8c-4.9,2.4-8.3,6.5-11.9,11.1c-2.1-4.1-1.7-7.7-0.9-11.4c2-8.7,6.3-16.4,11.5-23.6c2.1-2.8,1.6-4.5-0.5-6.7
	c-4.5-4.7-10.5-6.6-16.6-8.7C27.3,284.2,35.1,281.9,42,278z"/>
<path class="st3" d="M179.8,693.9c-0.3,0-0.7,0-1,0c-5.7-12.2-11.5-24.3-17.2-36.5c-7.6-16.4-15.2-32.8-22.6-49.4
	c-11.3-25.5-22.3-51.1-33.5-76.7c-4.7-10.6-9.6-21.2-14.2-31.8c-0.9-2-3.3-4.6,1.3-6.2c25.4-8.6,44.5-26,62.1-45.3
	c3.4-3.7,6.9-7.5,9.1-12.3c10.3,0.9,20.6,1.6,30.9,0c0.1,1.5,1.1,2.3,1.9,3.4c4.5,6,10.1,11,15.3,16.3
	c14.8,14.9,31.8,26.7,51.7,33.6c3,1.1,2.7,2.2,1.7,4.6c-13.2,31.2-26.4,62.3-39.3,93.6C211.3,623.3,196.1,658.8,179.8,693.9z"/>
<path class="st4" d="M145.9,25c2.9,13.6-1.7,24.2-11.2,34.1c-15.6,16.2-31.6,31.8-47.2,48c-5.3,5.5-10.3,11.2-15.4,16.8
	c-4.8,3.6-8.7,8.2-12.9,12.5c-10.3,10.5-22.4,13.6-36,8.6c-14.4-5.3-21.6-16.4-21.7-31.5c-0.3-26.6-0.4-53.3,0-80
	C1.6,13.7,16.1,0.1,36.1,0c24.3-0.1,48.6,0,73,0C129.1,0,138.7,6.6,145.9,25z"/>
<path class="st4" d="M288,124.2c-0.3-2.2-2-3.4-3.4-4.8c-20.4-20.7-40.8-41.4-61.1-62.2c-6.5-6.7-10.3-14.5-9.8-24.1
	c0.2-2.7,0.1-5.3,0.1-8c0.9-1.9,1.8-3.8,2.8-5.7c6.1-12.3,16-19,29.7-19.2c26.5-0.2,52.9-0.2,79.4,0c18.7,0.1,33,14.9,33,33.6
	c0,26.6,0,53.3,0,79.9c0,14-7.7,26.1-20.3,31c-13.5,5.2-25.8,3-36.4-7.1c-4.4-4.2-7.7-9.5-13.3-12.5c0,0,0.1,0.1,0.1,0.1
	C288.5,124.8,288.3,124.5,288,124.2z"/>
<path class="st5" d="M163.9,435.9c-2.2,4.7-5.7,8.6-9.1,12.3c-17.6,19.3-36.7,36.7-62.1,45.3c-4.6,1.6-2.1,4.2-1.3,6.2
	c4.6,10.7,9.6,21.2,14.2,31.8c11.2,25.5,22.2,51.2,33.5,76.7c7.3,16.6,15,33,22.6,49.4c5.6,12.2,11.4,24.3,17.2,36.5
	c-6,0.2-12.1,0.4-18-1.2c-0.3-9.8-3.9-18.5-9.1-26.5c-6.3-9.7-14.8-14.4-26.8-13.6c-12.9,0.8-26,0.2-39,0.2c0-1.7-1.3-2.6-2.2-3.7
	c-9.8-12-16.9-25.5-21.5-40.2c-7-22.1-6.3-44.4-1.9-66.9c2.6-13,4.4-26.1,6.6-39.1c5.7-33.6,11.4-67.2,17.1-100.7
	c0.1-0.8,0.5-1.6,0.7-2.3c1.9,1.3,3.9,2.5,5.6,4c10.7,9.4,22.9,16.3,35.9,22C138.2,431.1,150.9,433.9,163.9,435.9z"/>
<path class="st5" d="M179.8,693.9c16.2-35.1,31.5-70.6,46.3-106.4c12.9-31.3,26.1-62.5,39.3-93.6c1-2.4,1.4-3.6-1.7-4.6
	c-20-7-36.9-18.8-51.7-33.6c-5.3-5.3-10.8-10.3-15.3-16.3c-0.8-1.1-1.9-1.9-1.9-3.4c15.8-1.9,31-6,45.5-12.7
	c11.5-5.3,21.4-13.1,31.6-20.3c2.5,14,5,28,7.4,42.1c3.3,19.3,6.4,38.6,9.6,57.9c0.3,0.8,0.6,1.6,0.7,2.4
	c2.4,14.4,4.7,28.7,7.2,43.1c2.7,15.5,3,31,0.5,46.6c-3.6,21.9-13.8,40.7-27.4,57.9c-14.6,0-29.2,0.2-43.9,0c-5,0-9,1.9-12.6,5
	c-10.7,9.3-16.3,21.1-16.7,35.3C191.1,693.5,185.5,694.5,179.8,693.9z"/>
<path class="st2" d="M271.9,402.9c-10.3,7.2-20.2,15-31.6,20.3c-14.5,6.7-29.7,10.8-45.5,12.7c-10.3,1.5-20.6,0.8-30.9,0
	c-12.9-2.1-25.7-4.8-37.7-10.1c-13-5.7-25.2-12.5-35.9-22c-1.7-1.5-3.7-2.7-5.6-4c-1.6-2-3.2-3.9-4.8-5.9
	c7.4-10.6,17.2-18.9,26.5-27.7c10.2-9.7,21.5-18.3,33.9-25.1c3.9-2.2,8-4.1,12-6.1c1.5-0.7,3.3-0.8,3.6-2.9
	c5.5,2.4,11.3,3.8,17.2,4.6c1.2,0.1,3-0.4,2.8,1.8c-0.3,5.2,1.3,10.6-2.7,15.3c-7.9,9.4-17.1,16.7-29.8,18.2
	c-1.7,0.2-2.8,0.4-2.7,2.5c0.2,2.6,1.9,1.7,3.3,1.6c5.6-0.4,10.7-2.3,15.5-5c7.4-4,13.2-9.9,18.4-16.5c2.1,2.6,3.8,5,5.9,7.1
	c7.7,8.1,16.8,13.5,28.2,14.3c1.5,0.1,3.6,0.9,3.6-1.9c0-2.3-1.7-2.1-3.1-2.1c-3.2-0.1-6.2-1-9.2-2c-14.5-5-23.7-17-23.2-29.9
	c0.1-2.2,0.5-3.2,2.9-3.4c5.1-0.4,10.1-1.6,15-3.5c0.3,2.1,2.2,2.4,3.6,3c24.3,11.8,43.4,30.1,61.3,49.9c4,4.4,7.1,9.6,12.2,13
	C274.5,400.7,271.9,400.8,271.9,402.9z"/>
<path class="st4" d="M269.9,652.8c13.6-17.2,23.8-36,27.4-57.9c2.6-15.5,2.2-31.1-0.5-46.6c-2.5-14.4-4.8-28.7-7.2-43.1
	c-0.1-0.8-0.5-1.6-0.7-2.4c2.9,1,4.6-1.4,6.7-2.5c18.7-10.5,42.8-6,54.7,10.7c7.5,10.4,9.1,22,5.3,34.2
	c-10.8,34.6-21.8,69.1-32.6,103.7c-2.6,8.4-5,16.9-12.1,24.9c6.5,0,11.7-0.1,16.9,0c9.8,0.3,17.7,7.4,19.4,16.9
	c0.5,2.5,0.1,3.9-2.7,3.8c-15.6-0.3-31.3,0.6-46.9-0.4c0.4-8.7-2.2-16.8-6.5-24.1C286.2,661.8,280.3,654.4,269.9,652.8z"/>
<path class="st4" d="M66.9,502.9c-2.2,13.1-4.1,26.2-6.6,39.1c-4.4,22.5-5.1,44.8,1.9,66.9c4.7,14.7,11.7,28.2,21.5,40.2
	c0.9,1.1,2.3,2,2.2,3.7C70.3,658.2,59,676.2,60,694.2c-15.8,0.9-31.6,0.1-47.4,0.4c-3.2,0.1-2.9-2-2.6-4c1.2-8.8,9.4-16.2,18.6-16.7
	c4.6-0.3,9.3-0.1,14-0.1c2.1,0,2.9-0.7,1.5-2.6c-8.9-12-10.9-26.6-15.4-40.3c-8.9-27.1-17.2-54.5-25.8-81.7
	c-5.9-18.6-2.7-34.3,10.5-44.9c14.6-11.7,30.7-12.1,47.3-4.2C62.7,500.9,64.8,501.9,66.9,502.9z"/>
<path class="st3" d="M60,694.2c-1-18,10.3-35.9,25.9-41.3c13,0,26,0.6,39-0.2c12.1-0.8,20.6,4,26.8,13.6c5.2,8,8.8,16.7,9.1,26.5
	c-1,1.2-2.3,1.7-3.9,1.6c-8-0.2-15.9-0.2-23.9-0.3c-0.1-5.3,0.1-10.7-0.3-15.9c-0.7-7.4-1.1-15-6.4-21c-0.7-0.8-1.8-2.6-3.2-1
	c-0.9,1-1.7,2.3,0.1,3.8c2.3,2,3.1,5,3.8,8c2.1,8.7,2,17.5,1.9,26.3c-14,0-28,0-42,0c0-3.2-0.2-6.3,0.1-9.5
	c0.8-8.8-0.2-18.1,6.3-25.5c1.1-1.3,0-2.3-0.6-3c-1.1-1.3-2.1-0.1-2.8,0.7c-2.7,2.6-4,6-4.9,9.6c-2.3,9.1-2.1,18.4-2.1,27.7
	C75.2,694.2,67.6,694.2,60,694.2z"/>
<path class="st3" d="M269.9,652.8c10.4,1.7,16.3,9,21.2,17.2c4.3,7.3,7,15.3,6.5,24.1c-9.1,0.6-18.2,0.4-27.3,0.1
	c-0.2-6-0.2-12-0.7-18c-0.6-6.8-1.4-13.6-6.1-19.1c-0.8-0.9-1.9-2.4-3.3-1c-1,1-1.5,2.4,0,3.8c3.1,3.1,3.8,7.3,4.5,11.4
	c1.4,7.6,1.1,15.3,1.2,22.9c-14,0-28,0-42,0c0.7-11.9-1.6-24.4,6.5-35c1-1.3,0-2.3-0.7-3.1c-1.2-1.4-2.1,0.1-2.8,0.7
	c-3,2.9-4.3,6.7-5.1,10.6c-2,8.8-2,17.8-2.1,26.8c-6.8,0.1-13.5,0.1-20.3,0.2c-1.1,0-2.4,0.2-2.8-1.3c0.4-14.2,6-26,16.7-35.3
	c3.6-3.1,7.6-5.1,12.6-5C240.7,652.9,255.3,652.8,269.9,652.8z"/>
<path class="st6" d="M266.1,694.2c-0.1-7.7,0.2-15.3-1.2-22.9c-0.8-4.1-1.4-8.3-4.5-11.4c-1.5-1.5-1-2.8,0-3.8
	c1.4-1.4,2.5,0.1,3.3,1c4.7,5.5,5.5,12.3,6.1,19.1c0.5,6,0.5,12,0.7,18C268.9,694.2,267.5,694.2,266.1,694.2z"/>
<path class="st6" d="M219.8,694.2c0.1-9,0.1-18,2.1-26.8c0.9-3.9,2.2-7.7,5.1-10.6c0.7-0.7,1.6-2.1,2.8-0.7c0.7,0.8,1.7,1.8,0.7,3.1
	c-8.1,10.6-5.8,23.1-6.5,35C222.6,694.6,221.2,694.6,219.8,694.2z"/>
<path class="st6" d="M128.9,694.2c0-8.8,0.2-17.6-1.9-26.3c-0.7-2.9-1.5-6-3.8-8c-1.8-1.5-0.9-2.8-0.1-3.8c1.4-1.6,2.4,0.2,3.2,1
	c5.3,6,5.7,13.6,6.4,21c0.5,5.3,0.3,10.6,0.3,15.9C131.7,694.2,130.3,694.2,128.9,694.2z"/>
<path class="st6" d="M82.8,694.2c0-9.3-0.2-18.6,2.1-27.7c0.9-3.6,2.2-7,4.9-9.6c0.8-0.8,1.8-2,2.8-0.7c0.6,0.7,1.7,1.7,0.6,3
	c-6.5,7.4-5.5,16.7-6.3,25.5c-0.3,3.1-0.1,6.3-0.1,9.5C85.5,694.2,84.2,694.2,82.8,694.2z"/>
<path class="st2" d="M313.5,338c-1.9-1.2-1.8-3.4-2.7-5.1c-0.7-1.3-2.7-3.2-1.1-4.3c1.8-1.3,4.4-1.2,6,1.2
	C315.5,332.6,314.7,335.3,313.5,338z"/>
<path class="st6" d="M199.6,240.1c-11.2,13.5-30.7,15.6-43.2-1c-2.6,2.2-5.1,4.7-8,6.6c-8.8,5.9-18.9,5-26.3-2.6
	c-2.4-2.4-3.4-2.4-5.6,0.2c-8.3,9.7-19.5,8.5-25.6-2.8c-6-11.1-6.5-23.3-6.3-35.4c0.3-19.7,7.9-37.2,17.7-53.8
	c4.5-7.6,9.5-14.8,14.4-22.2c0.8-1.2,1.1-4,3.8-2.3c2.7,1.7,0.5,3.1-0.4,4.4c-6.8,10-13.6,20.1-19.2,30.9
	c-11,21-15.4,43.1-10.1,66.6c1,4.4,2.4,8.7,5.2,12.3c2.8,3.6,6.4,5.3,11,4.1c4.8-1.3,7.3-5,9.4-9c0.5-1-0.5-2.8-1-4.2
	c-1.2-3.9-1.6-7.9-0.1-11.8c1.3-3.5,3.9-5.5,7.8-4.5c3.7,1,4,4.1,3.5,7.3c-0.5,3.7-1.7,7.1-3.6,10.3c-1.3,2.2-1,3.8,0.6,5.8
	c9.2,11.1,22.8,6.2,29.6-3.3c1.2-1.6-0.1-2.8-0.5-4.2c-1.1-4-2.3-8-1.1-12.2c0.9-3.1,2.7-5.1,6-4.9c3.2,0.2,5.1,2.3,5.6,5.4
	c0.7,4.5-0.8,8.6-2.9,12.4c-1.2,2.3-0.9,3.7,0.5,5.7c8.4,11.2,23.8,12,33.5,1.8c1.8-1.9,2.5-3.3,0.8-5.9c-2-3-3.6-6.4-3.6-10.2
	c0-3.1,0.7-5.7,4.2-6.4c3.5-0.7,6.3,0.3,7.9,3.6c2,4.3,1.2,8.5-0.6,12.5c-1.2,2.6-0.6,4.2,1.3,6c3.3,3.1,6.6,6,11.2,7.1
	c4.8,1.1,10.5-1.3,13.2-5.2c1.2-1.8,0-2.8-0.5-4c-2.1-4.7-3.4-9.4-1.7-14.5c1.4-4.2,4.3-6.4,8.7-5.6c4.2,0.8,4.6,4.3,4.6,7.8
	c0,4.3-1.1,8.3-3.3,11.9c-1.9,3-0.9,4.7,1.4,6.6c9.5,7.9,23,4.5,27.3-7c4.8-12.8,3.6-25.9,1-38.9c-4.9-24.1-15.8-45.4-30.5-64.9
	c-0.6-0.8-1.2-1.6-1.8-2.4c-1-1.1-1.4-2,0.2-3.2c1.6-1.3,2.3-0.4,3.2,0.7c5.7,7.2,10.8,14.8,15.3,22.8c11.8,21,19.8,43.2,20,67.6
	c0.1,7-0.8,14-3.7,20.5c-6,13.8-21.7,17.7-33.3,8c-2.9-2.4-4.1-2.2-6.7,0.1c-6,5.3-13.4,5.6-20.3,1.3
	C205.2,245.7,202.2,243.2,199.6,240.1z M232.4,235.6c2-3.4,3.1-6.7,3.3-10.2c0.1-1.7,0.8-4.1-1.8-4.4c-2.6-0.4-3.3,1.9-3.7,3.9
	C229.5,228.5,230.6,231.9,232.4,235.6z M199.3,231.8c1-3.1,1.9-5.7,1-8.5c-0.5-1.6-1.5-2.6-3.2-2.3c-2,0.4-1.4,2-1.2,3.2
	C196.3,226.7,197.1,229.2,199.3,231.8z M156.7,229.3c1.9-2.7,2.4-5,2.5-7.4c0-1.3,0.2-3.1-1.4-3.2c-2-0.2-2.1,1.8-2.2,3.2
	C155.3,224.1,155.6,226.3,156.7,229.3z M119.2,230.2c2.7-2.8,2.9-5.5,3.5-8c0.2-0.9,0.4-2.1-0.9-2.4c-1.1-0.3-1.9,0.5-2.3,1.4
	C118.2,223.8,118.7,226.5,119.2,230.2z"/>
<path class="st7" d="M288,124.2c0.3,0.3,0.6,0.6,0.9,0.9C288.5,124.8,288.3,124.5,288,124.2z"/>
<path class="st6" d="M197.9,333.1c-4.8,1.9-9.8,3-15,3.5c-2.5,0.2-2.9,1.2-2.9,3.4c-0.5,12.9,8.8,25,23.2,29.9c3,1,6,1.9,9.2,2
	c1.5,0.1,3.1-0.2,3.1,2.1c0,2.9-2.1,2-3.6,1.9c-11.4-0.9-20.5-6.2-28.2-14.3c-2-2.1-3.8-4.6-5.9-7.1c-5.3,6.6-11.1,12.4-18.4,16.5
	c-4.9,2.6-9.9,4.6-15.5,5c-1.3,0.1-3.1,1-3.3-1.6c-0.1-2.1,1-2.3,2.7-2.5c12.7-1.4,21.9-8.7,29.8-18.2c4-4.7,2.4-10.1,2.7-15.3
	c0.1-2.2-1.7-1.6-2.8-1.8c-6-0.7-11.7-2.2-17.2-4.6c-3.6-2.2-7-4.3-9.9-7.5c-6.8-7.4-7.2-17.2-0.6-24.8c6.6-7.8,15.6-11.1,25.3-12.4
	c12.6-1.6,24.6,0.1,35.1,7.7c13.3,9.7,13,24.3-0.5,33.8C202.9,330.6,200.3,331.8,197.9,333.1z"/>
<path class="st5" d="M232.4,235.6c-1.8-3.7-2.9-7.1-2.2-10.8c0.4-2,1.1-4.2,3.7-3.9c2.6,0.4,1.9,2.8,1.8,4.4
	C235.5,228.9,234.4,232.2,232.4,235.6z"/>
<path class="st5" d="M199.3,231.8c-2.2-2.6-3-5.1-3.4-7.6c-0.2-1.1-0.8-2.8,1.2-3.2c1.8-0.3,2.7,0.7,3.2,2.3
	C201.2,226.1,200.3,228.7,199.3,231.8z"/>
<path class="st5" d="M156.7,229.3c-1.1-2.9-1.4-5.2-1.2-7.5c0.1-1.4,0.2-3.4,2.2-3.2c1.7,0.2,1.5,1.9,1.4,3.2
	C159.1,224.3,158.6,226.6,156.7,229.3z"/>
<path class="st5" d="M119.2,230.2c-0.4-3.7-1-6.4,0.3-9c0.4-0.9,1.2-1.6,2.3-1.4c1.3,0.3,1.1,1.5,0.9,2.4
	C122.1,224.6,121.9,227.3,119.2,230.2z"/>
</svg>
