<?xml version="1.0" encoding="utf-8"?>
<!-- Generator: Adobe Illustrator 24.2.3, SVG Export Plug-In . SVG Version: 6.00 Build 0)  -->
<svg version="1.1" id="Layer_1" xmlns="http://www.w3.org/2000/svg" xmlns:xlink="http://www.w3.org/1999/xlink" x="0px" y="0px"
	 viewBox="0 0 164 164.2" style="enable-background:new 0 0 164 164.2;" xml:space="preserve">
<style type="text/css">
	.st0{fill:#ffffff;}
</style>
<g>
	<path class="st0" d="M123.3,126.6c8.2-0.8,15.1-8.5,16-17.9c1-10.3-3.5-18.1-11.2-24.3c-4.4-3.6-9.1-6.8-13.5-10.3
		c-1.8-1.4-3.5-3.2-4.7-5.1c-4.2-6.3-2.5-12.1,4.7-15.4c-1.4-10.5-6.5-19.1-14.8-25.6C83.4,15.1,64.6,13,44.8,16.6
		c-5.7,1-11.2,2.9-17.4,4.6c1-1.1,1.5-1.9,2.2-2.4c25.1-18.5,52.6-24.4,82-12.8C141,17.5,158.2,39.8,163,70.9
		c5.2,33.4-12.1,67.2-41.6,83.2c-30,16.3-67.5,12.6-93.1-9.5c-19.8-17.2-30.4-38.5-28-65.2c2.8-31.3,36.8-54.3,66.3-45
		C83.8,39.7,94.4,57.2,90,74.3c-1.3,4.8-4.9,9.3-8.2,13.2c-4,4.6-9.3,8.1-13.4,12.7c-6.2,7-8.8,15.3-5.7,24.6
		c5,15.1,23.7,20.9,35.8,10.5c5.2-4.5,8.9-10.7,13.1-16.2c2.1-2.7,3.9-5.8,6.2-8.4c1-1.1,3.3-1.9,4.7-1.6c0.9,0.2,1.8,2.7,1.8,4.2
		C124.3,117.7,123.7,122.1,123.3,126.6z M73.2,70.1c-0.1-4.3-3.7-7.8-8.1-7.8c-4.6,0-8.1,3.7-7.9,8.4c0.2,4.4,3.9,7.8,8.2,7.6
		C69.6,78.1,73.2,74.3,73.2,70.1z"/>
	<path class="st0" d="M118.3,103.4c-5.7,0-9.8-3.2-9.9-7.7c-0.1-4.9,4.9-8.9,11.2-8.9c5.6,0,9.8,3.3,9.8,7.7
		C129.6,99.5,124.6,103.4,118.3,103.4z"/>
</g>
</svg>
