<?xml version="1.0" encoding="utf-8"?>
<!-- Generator: Adobe Illustrator 24.2.3, SVG Export Plug-In . SVG Version: 6.00 Build 0)  -->
<svg version="1.1" id="Layer_1" xmlns="http://www.w3.org/2000/svg" xmlns:xlink="http://www.w3.org/1999/xlink" x="0px" y="0px"
	 viewBox="0 0 214.3 189.7" style="enable-background:new 0 0 214.3 189.7;" xml:space="preserve">
<style type="text/css">
	.st0{fill:#1B9B00;}
</style>
<path class="st0" d="M178.3,153.5c0,27-17.9,40.3-40.6,34.9c-7.9-1.9-15.8-3.8-23.7-5.7c-9-2.2-17.4,0.7-25.9,2.8
	c-9.1,2.2-18,5.6-27.8,3.7c-13-2.5-23.3-14.2-24.1-27.5c-0.9-15.9,6.4-27.9,16.8-39c8-8.6,15.1-18,22.5-27.2
	c4-4.9,7.3-10.4,11.7-14.8c11.5-11.3,28.8-11.3,40.3,0.1c5,5,8.6,11.4,13,16.9c6.7,8.2,13.1,16.7,20.4,24.4
	C170.8,132.3,178.1,143.6,178.3,153.5z"/>
<path class="st0" d="M101.2,42.5c-0.9,3.3-1.8,9.5-4.4,15C90.3,71,75.9,73.7,64.3,64.3C50.4,53,45.1,29.5,52.9,13.3
	c6.8-14.2,20.8-17.5,33-7.6C96.5,14.4,100.3,26.4,101.2,42.5z"/>
<path class="st0" d="M165.5,28.2c-0.6,13.3-3.6,23.8-11.5,32.5c-5.8,6.4-12.8,10.8-22,8.7c-9.5-2.2-14.3-9.2-16.7-18
	c-4.2-15.9-0.8-30.4,10.1-42.6c12.7-14.3,31.3-10.4,37.5,7.7C164.4,20.7,164.9,25.4,165.5,28.2z"/>
<path class="st0" d="M214.3,79.5c-0.1,17.2-12.3,33.5-27.4,36.7c-7.4,1.6-13.7-0.6-18.3-6.2c-8.1-10-7.6-21.3-3.1-32.5
	C170,66,177.6,57,190.5,55c13-2,22.7,7.3,23.7,21.5C214.3,77.5,214.3,78.5,214.3,79.5z"/>
<path class="st0" d="M0,79.3c0.5-2.9,0.7-5.9,1.4-8.8c3.4-12.9,15.6-19,28-14.1c16.9,6.6,27.2,30.1,20.7,47.1
	c-4.3,11.1-15.1,15.8-26.4,11.7C10.4,110.2,0.3,94.9,0,79.3z"/>
</svg>
